<svg width="320" height="90" viewBox="0 0 320 90" fill="none" xmlns="http://www.w3.org/2000/svg">
    <defs>
        <linearGradient id="SvgjsLinearGradient1936">
            <stop id="SvgjsStop1937" stop-color="#7d141d" offset="0"></stop>
            <stop id="SvgjsStop1938" stop-color="#ff1e27" offset="1"></stop>
        </linearGradient>
    </defs>
    <g transform="matrix(1.4285714285714286,0,0,1.3285714285714286,0,0)" >
        <path xmlns="http://www.w3.org/2000/svg" fill="url(#SvgjsLinearGradient1936)" d="M441.836625,559.413809 C444.185893,557.886952 446.989367,557 450,557 C451.325143,557 452.610152,557.171834 453.83396,557.494436 L459.158065,545.22072 C459.471117,544.480781 460.196563,544 461,544 L465.200036,544 C465.068861,544.64622 465,545.315068 465,546 C465,546.684932 465.068861,547.35378 465.200036,548 L462.325476,548 L457.531966,559.025277 C461.451094,561.305288 464.242965,565.310112 464.867829,570 L471.252035,570 C471.087506,570.63924 471,571.309401 471,572 C471,572.690599 471.087506,573.36076 471.252035,574 L464.867829,574 C464.278658,578.421998 461.762972,582.234959 458.19233,584.567325 L462.260443,593 L466.223016,593 C466.077061,593.643223 466,594.312612 466,595 C466,595.687388 466.077061,596.356777 466.223016,597 L461,597 C460.229802,597 459.528038,596.557733 459.195732,595.862911 L454.580391,586.287797 C453.136517,586.750298 451.597419,587 450,587 C446.165369,587 442.666812,585.561097 440.014808,583.193768 L436.309861,586.511378 C435.946236,586.82652 435.481183,587 435,587 L428.776984,587 C428.922939,586.356777 429,585.687388 429,585 C429,584.312612 428.922939,583.643223 428.776984,583 L434.253933,583 L437.411551,580.1599 C435.886078,577.811343 435,575.009149 435,572 C435,568.168507 436.436549,564.672539 438.800421,562.02132 L433.353903,556 L429,556 C429.164529,555.36076 429.252035,554.690599 429.252035,554 C429.252035,553.309401 429.164529,552.63924 429,552 L434.252035,552 C434.823311,552 435.367319,552.244296 435.746854,552.671272 L441.836625,559.413809 Z M450,582 C455.522847,582 460,577.522847 460,572 C460,566.477153 455.522847,562 450,562 C444.477153,562 440,566.477153 440,572 C440,577.522847 444.477153,582 450,582 Z M450,578 C446.686292,578 444,575.313708 444,572 C444,568.686292 446.686292,566 450,566 C453.313708,566 456,568.686292 456,572 C456,575.313708 453.313708,578 450,578 Z M421,559 C418.238576,559 416,556.761424 416,554 C416,551.238576 418.238576,549 421,549 C423.761424,549 426,551.238576 426,554 C426,556.761424 423.761424,559 421,559 Z M475,601 C471.686292,601 469,598.313708 469,595 C469,591.686292 471.686292,589 475,589 C478.313708,589 481,591.686292 481,595 C481,598.313708 478.313708,601 475,601 Z M479,577 C476.238576,577 474,574.761424 474,572 C474,569.238576 476.238576,567 479,567 C481.761424,567 484,569.238576 484,572 C484,574.761424 481.761424,577 479,577 Z M420,591 C416.686292,591 414,588.313708 414,585 C414,581.686292 416.686292,579 420,579 C423.313708,579 426,581.686292 426,585 C426,588.313708 423.313708,591 420,591 Z M475,553 C471.134007,553 468,549.865993 468,546 C468,542.134007 471.134007,539 475,539 C478.865993,539 482,542.134007 482,546 C482,549.865993 478.865993,553 475,553 Z" transform="translate(-414 -539)"></path>
    </g>
    <g fill="#fff" transform="matrix(2.4260125583612124,0,0,2.4260125583612124,117.33090171254587,8.443924649832725)">
        <path d="M7.08 9.72 c2.62 0 4.78 2.3 4.78 5.28 s-2.16 5.28 -4.78 5.28 c-1.3382 0 -2.3112 -0.4516 -2.9798 -1.214 l0 0.434 c0 0.32 -0.18 0.5 -0.5 0.5 l-2 0 c-0.32 0 -0.5 -0.18 -0.5 -0.5 l0 -13 c0 -0.32 0.18 -0.5 0.5 -0.5 l2 0 c0.32 0 0.5 0.18 0.5 0.5 l0 4.434 c0.6686 -0.7624 1.6416 -1.214 2.9798 -1.214 z M6.48 17.44 c1.38 0 2.38 -0.94 2.38 -2.44 s-1 -2.44 -2.38 -2.44 s-2.38 0.94 -2.38 2.44 s1 2.44 2.38 2.44 z M19.34 10.42 c0.08 -0.28 0.28 -0.42 0.56 -0.42 l2.16 0 c0.36 0 0.54 0.2 0.42 0.56 l-4.32 13.04 c-0.08 0.28 -0.3 0.4 -0.58 0.4 l-2.16 0 c-0.36 0 -0.54 -0.2 -0.42 -0.56 l1.2 -3.6 l-3.52 -9.26 c-0.12 -0.34 0.04 -0.58 0.4 -0.58 l2.16 0 c0.28 0 0.46 0.14 0.56 0.4 l1.9 5.3 z M28.660000000000004 10 c0.32 0 0.5 0.18 0.5 0.5 l0 1.88 c0 0.32 -0.18 0.5 -0.5 0.5 l-1.1 0 l0 6.62 c0 0.32 -0.18 0.5 -0.5 0.5 l-2 0 c-0.32 0 -0.5 -0.18 -0.5 -0.5 l0 -6.62 l-1.1 0 c-0.32 0 -0.5 -0.18 -0.5 -0.5 l0 -1.88 c0 -0.32 0.18 -0.5 0.5 -0.5 l1.1 0 l0 -2.7 c0 -0.32 0.18 -0.5 0.5 -0.5 l2 0 c0.32 0 0.5 0.18 0.5 0.5 l0 2.7 l1.1 0 z M35.42 9.72 c2.92 0 5.04 2.26 5.04 5.28 c0 0.26 -0.02 0.5 -0.04 0.74 c-0.04 0.32 -0.24 0.46 -0.54 0.46 l-2.44 0 l-4.2388 0 c0.3634 1.1882 1.2966 1.66 2.3388 1.66 c0.56 0 1.12 -0.2 1.48 -0.5 c0.2 -0.16 0.36 -0.26 0.62 -0.26 l1.92 -0.02 c0.36 0 0.56 0.24 0.4 0.56 c-0.78 1.74 -2.42 2.64 -4.46 2.64 c-3.32 0 -5.44 -2.3 -5.44 -5.28 s2.2 -5.28 5.36 -5.28 z M33.18860000000001 13.92 l4.285 0 c-0.3092 -1.138 -1.1914 -1.54 -2.0736 -1.54 c-1.1244 0 -1.9024 0.5426 -2.2114 1.54 z M48.1 9.72 c2.62 0 4.78 2.3 4.78 5.28 s-2.16 5.28 -4.78 5.28 c-1.3382 0 -2.3112 -0.4516 -2.9798 -1.214 l0 0.434 c0 0.32 -0.18 0.5 -0.5 0.5 l-2 0 c-0.32 0 -0.5 -0.18 -0.5 -0.5 l0 -13 c0 -0.32 0.18 -0.5 0.5 -0.5 l2 0 c0.32 0 0.5 0.18 0.5 0.5 l0 4.434 c0.6686 -0.7624 1.6416 -1.214 2.9798 -1.214 z M47.5 17.44 c1.38 0 2.38 -0.94 2.38 -2.44 s-1 -2.44 -2.38 -2.44 s-2.38 0.94 -2.38 2.44 s1 2.44 2.38 2.44 z M59.38 20.28 c-2.94 0 -5.3 -2.3 -5.3 -5.28 s2.36 -5.28 5.3 -5.28 s5.3 2.3 5.3 5.28 s-2.36 5.28 -5.3 5.28 z M59.38 17.36 c1.3 0 2.3 -0.94 2.3 -2.36 s-1 -2.36 -2.3 -2.36 s-2.3 0.94 -2.3 2.36 s1 2.36 2.3 2.36 z M71.46000000000001 9.84 c0.34 -0.06 0.52 0.1598 0.52 0.4798 l0 2.36 c0 0.32 -0.14 0.48 -0.4 0.48 c-1.12 -0.04 -2.2 0.52 -2.2 2.12 l0 4.22 c0 0.32 -0.18 0.5 -0.5 0.5 l-2 0 c-0.32 0 -0.5 -0.18 -0.5 -0.5 l0 -9 c0 -0.32 0.18 -0.5 0.5 -0.5 l2 0 c0.32 0 0.5 0.18 0.5 0.5 l0 1.081 c0.2984 -1.004 1.0864 -1.5918 2.08 -1.7408 z M83.04 10 c0.32 0 0.5 0.17961 0.5 0.4996 l0 9 c0 3.36 -2.7 4.78 -5.14 4.78 c-2.46 0 -4.74 -1.16 -5.04 -3.56 c-0.02 -0.34 0.18 -0.52 0.5 -0.52 l2.02 0 c0.3 0 0.44 0.16 0.54 0.44 c0.22 0.6 0.88 1 1.98 1 c1.34 0 2.22 -0.72 2.22 -2.14 l0 -0.90881 c-0.6702 0.7998 -1.6674 1.289 -3.06 1.289 c-2.62 0 -4.78 -2.3 -4.78 -5.08 s2.16 -5.08 4.78 -5.08 c1.3926 0 2.3898 0.4892 3.06 1.289 l0 -0.50881 c0 -0.32 0.18 -0.5 0.5 -0.5 l1.92 0 z M78.2 17.1196 c1.42 0 2.42 -0.94 2.42 -2.32 s-1 -2.32 -2.42 -2.32 s-2.42 0.94 -2.42 2.32 s1 2.32 2.42 2.32 z"></path>
    </g>
</svg>