<svg class="svg-icon" style="width: 1em; height: 1em;vertical-align: middle;fill: currentColor;overflow: hidden;"
     viewBox="0 0 1024 1024" version="1.1" xmlns="http://www.w3.org/2000/svg">
    <path d="M512.008 81.856c-237.562 0-430.14 192.588-430.14 430.148 0 237.552 192.578 430.136 430.14 430.136 237.546 0 430.132-192.584 430.132-430.136 0-237.56-192.586-430.148-430.132-430.148z"
          fill="#EDF3FC"/>

    <path d="M512.004 212.006c-165.696 0-300.004 134.32-300.004 300.008s134.308 300 300.004 300c165.68 0 299.996-134.312 299.996-300s-134.316-300.008-299.996-300.008z"
          fill="#830a0a"/>
    <path d="M512.004 286.826c-124.376 0-225.2 100.816-225.2 225.188 0 124.366 100.824 225.188 225.2 225.188 124.364 0 225.184-100.822 225.184-225.188 0-124.372-100.82-225.188-225.184-225.188z"
          fill="#ff4646"/>
    <path d="M376.398 397.66l107.124 283.81 16.696-158.6zM507.87 525.652l-17.738 159.994L661.6 482.524zM380.918 390.356l123.474 124.166 97.036-85.908zM607.342 433.83L512.042 518l149.558-42.434z"
          fill="#FFFFFF"/>


</svg>